<svg width="118" height="22" viewBox="0 0 118 22" fill="none" xmlns="http://www.w3.org/2000/svg">
<path d="M7.704 10.424C8.184 10.424 8.584 10.224 8.904 9.824C9.24 9.424 9.512 8.936 9.72 8.36C9.944 7.784 10.104 7.184 10.2 6.56C10.296 5.936 10.344 5.392 10.344 4.928C10.344 4.496 10.272 4.136 10.128 3.848C9.984 3.544 9.672 3.392 9.192 3.392H8.112L6.6 10.424H7.704ZM6.264 11.96L5.184 17H0L3.24 1.76H8.784C9.696 1.76 10.528 1.808 11.28 1.904C12.032 2 12.68 2.192 13.224 2.48C13.768 2.768 14.192 3.184 14.496 3.728C14.8 4.256 14.952 4.968 14.952 5.864C14.952 6.696 14.816 7.488 14.544 8.24C14.288 8.976 13.864 9.624 13.272 10.184C12.696 10.728 11.944 11.16 11.016 11.48C10.088 11.8 8.96 11.96 7.632 11.96H6.264ZM19.0226 17H14.1506L16.3346 6.68H21.2546L19.0226 17ZM21.8786 3.536C21.8786 3.904 21.7986 4.224 21.6386 4.496C21.4946 4.768 21.2946 5 21.0386 5.192C20.7986 5.384 20.5186 5.528 20.1986 5.624C19.8786 5.72 19.5506 5.768 19.2146 5.768C18.5746 5.768 18.0386 5.616 17.6066 5.312C17.1746 5.008 16.9586 4.528 16.9586 3.872C16.9586 3.52 17.0306 3.208 17.1746 2.936C17.3186 2.648 17.5106 2.416 17.7506 2.24C18.0066 2.048 18.2946 1.904 18.6146 1.808C18.9506 1.712 19.2946 1.664 19.6466 1.664C20.2706 1.664 20.7986 1.816 21.2306 2.12C21.6626 2.424 21.8786 2.896 21.8786 3.536ZM27.9739 12.968C27.8939 13.336 27.8299 13.664 27.7819 13.952C27.7339 14.24 27.7099 14.464 27.7099 14.624C27.7099 14.944 27.8219 15.144 28.0459 15.224C28.2859 15.304 28.7259 15.344 29.3659 15.344L29.0059 17C28.8939 17.032 28.7179 17.056 28.4779 17.072C28.2539 17.088 27.9979 17.104 27.7099 17.12C27.4379 17.152 27.1499 17.168 26.8459 17.168C26.5579 17.184 26.3019 17.192 26.0779 17.192C25.6779 17.192 25.2859 17.16 24.9019 17.096C24.5179 17.048 24.1739 16.944 23.8699 16.784C23.5659 16.608 23.3179 16.36 23.1259 16.04C22.9499 15.72 22.8619 15.288 22.8619 14.744C22.8619 14.552 22.8699 14.312 22.8859 14.024C22.9179 13.736 22.9739 13.416 23.0539 13.064L24.0619 8.288H22.1899L22.5259 6.68C23.1179 6.552 23.6379 6.408 24.0859 6.248C24.5339 6.088 24.9419 5.888 25.3099 5.648C25.6939 5.408 26.0539 5.112 26.3899 4.76C26.7419 4.408 27.1179 3.976 27.5179 3.464H29.9899L29.2939 6.68H30.4699C31.0779 6.68 31.6059 6.608 32.0539 6.464C32.5019 6.32 32.9099 6.112 33.2779 5.84C33.6459 5.568 33.9979 5.232 34.3339 4.832C34.6859 4.432 35.0619 3.976 35.4619 3.464H37.9339L37.2379 6.68H39.1099L38.7979 8.288H36.9019L35.9179 12.968C35.8379 13.336 35.7739 13.664 35.7259 13.952C35.6779 14.24 35.6539 14.464 35.6539 14.624C35.6539 14.944 35.7659 15.144 35.9899 15.224C36.2299 15.304 36.6699 15.344 37.3099 15.344L36.9499 17C36.8379 17.032 36.6619 17.056 36.4219 17.072C36.1979 17.088 35.9419 17.104 35.6539 17.12C35.3819 17.152 35.0939 17.168 34.7899 17.168C34.5019 17.184 34.2459 17.192 34.0219 17.192C33.6219 17.192 33.2299 17.16 32.8459 17.096C32.4619 17.048 32.1179 16.944 31.8139 16.784C31.5099 16.608 31.2619 16.36 31.0699 16.04C30.8939 15.72 30.8059 15.288 30.8059 14.744C30.8059 14.552 30.8139 14.312 30.8299 14.024C30.8619 13.736 30.9179 13.416 30.9979 13.064L32.0059 8.288H28.9579L27.9739 12.968ZM46.1336 9.704C46.1496 9.624 46.1656 9.544 46.1816 9.464C46.1976 9.384 46.2056 9.296 46.2056 9.2C46.2056 8.912 46.1496 8.648 46.0376 8.408C45.9416 8.152 45.7416 8.024 45.4376 8.024C45.1656 8.024 44.8936 8.144 44.6216 8.384C44.3496 8.608 44.2136 8.912 44.2136 9.296C44.2136 9.552 44.2776 9.76 44.4056 9.92C44.5496 10.064 44.7336 10.184 44.9576 10.28C45.1816 10.376 45.4296 10.456 45.7016 10.52C45.9896 10.584 46.2696 10.648 46.5416 10.712C46.9256 10.808 47.2856 10.928 47.6216 11.072C47.9736 11.2 48.2856 11.376 48.5576 11.6C48.8296 11.824 49.0456 12.104 49.2056 12.44C49.3656 12.76 49.4456 13.16 49.4456 13.64C49.4456 14.312 49.2856 14.88 48.9656 15.344C48.6616 15.792 48.2296 16.16 47.6696 16.448C47.1256 16.72 46.4776 16.912 45.7256 17.024C44.9896 17.136 44.1976 17.192 43.3496 17.192C42.0536 17.192 40.9816 17.096 40.1336 16.904C39.2856 16.712 38.6936 16.528 38.3576 16.352L38.8616 13.952H42.1016C42.0856 14.032 42.0776 14.112 42.0776 14.192C42.0776 14.256 42.0776 14.328 42.0776 14.408C42.0776 14.776 42.1576 15.072 42.3176 15.296C42.4936 15.504 42.7896 15.608 43.2056 15.608C43.6696 15.608 43.9976 15.48 44.1896 15.224C44.3976 14.952 44.5016 14.704 44.5016 14.48C44.5016 14.256 44.4136 14.064 44.2376 13.904C44.0776 13.728 43.8696 13.584 43.6136 13.472C43.3576 13.344 43.0696 13.24 42.7496 13.16C42.4456 13.064 42.1496 12.976 41.8616 12.896C41.6536 12.848 41.4136 12.768 41.1416 12.656C40.8856 12.544 40.6376 12.384 40.3976 12.176C40.1576 11.968 39.9576 11.704 39.7976 11.384C39.6376 11.048 39.5576 10.632 39.5576 10.136C39.5576 9.432 39.7256 8.848 40.0616 8.384C40.4136 7.904 40.8616 7.52 41.4056 7.232C41.9656 6.944 42.5896 6.736 43.2776 6.608C43.9816 6.48 44.6856 6.416 45.3896 6.416C46.2696 6.416 47.1016 6.496 47.8856 6.656C48.6696 6.816 49.3096 7.024 49.8056 7.28L49.2536 9.704H46.1336ZM54.1089 17H50.2209L53.6289 0.871999H58.5489L56.9889 8.216H57.1569C57.6849 7.608 58.2769 7.176 58.9329 6.92C59.6049 6.648 60.2689 6.512 60.9249 6.512C61.4849 6.512 61.9489 6.6 62.3169 6.776C62.7009 6.936 63.0049 7.16 63.2289 7.448C63.4529 7.736 63.6129 8.08 63.7089 8.48C63.8049 8.88 63.8529 9.304 63.8529 9.752C63.8529 9.976 63.8369 10.312 63.8049 10.76C63.7729 11.208 63.7009 11.712 63.5889 12.272C63.4769 12.816 63.3169 13.384 63.1089 13.976C62.9009 14.552 62.6209 15.08 62.2689 15.56C61.9329 16.04 61.5009 16.432 60.9729 16.736C60.4609 17.04 59.8449 17.192 59.1249 17.192C58.6929 17.192 58.2689 17.144 57.8529 17.048C57.4529 16.952 57.0849 16.824 56.7489 16.664C56.4289 16.504 56.1409 16.32 55.8849 16.112C55.6449 15.888 55.4689 15.664 55.3569 15.44H55.1889L54.1089 17ZM56.8209 14.864C57.2049 14.864 57.5249 14.664 57.7809 14.264C58.0369 13.848 58.2449 13.368 58.4049 12.824C58.5649 12.264 58.6769 11.712 58.7409 11.168C58.8209 10.608 58.8609 10.192 58.8609 9.92C58.8609 9.6 58.8049 9.336 58.6929 9.128C58.5969 8.92 58.4129 8.816 58.1409 8.816C57.8209 8.816 57.5249 8.936 57.2529 9.176C56.9809 9.4 56.7809 9.592 56.6529 9.752L55.7169 14.048C55.8289 14.24 55.9729 14.424 56.1489 14.6C56.3409 14.776 56.5649 14.864 56.8209 14.864ZM73.452 6.68H78.348L76.14 17H72.252L71.82 15.464H71.676C71.26 15.96 70.692 16.376 69.972 16.712C69.268 17.032 68.556 17.192 67.836 17.192C66.876 17.192 66.124 16.952 65.58 16.472C65.036 15.976 64.764 15.336 64.764 14.552C64.764 14.152 64.828 13.656 64.956 13.064C65.1 12.456 65.228 11.888 65.34 11.36L66.348 6.68H71.22L70.02 12.296C69.988 12.424 69.956 12.576 69.924 12.752C69.892 12.928 69.86 13.104 69.828 13.28C69.796 13.44 69.764 13.6 69.732 13.76C69.716 13.904 69.708 14.024 69.708 14.12C69.708 14.36 69.756 14.568 69.852 14.744C69.964 14.904 70.156 14.984 70.428 14.984C70.716 14.984 70.988 14.888 71.244 14.696C71.5 14.504 71.7 14.32 71.844 14.144L73.452 6.68ZM80.4831 6.68H84.3951L84.7551 8.48H84.9231C85.2911 7.904 85.7631 7.416 86.3391 7.016C86.9151 6.616 87.6751 6.416 88.6191 6.416C88.6831 6.416 88.7791 6.424 88.9071 6.44C89.0511 6.44 89.2031 6.464 89.3631 6.512C89.5391 6.544 89.7151 6.6 89.8911 6.68C90.0831 6.744 90.2671 6.84 90.4431 6.968L89.3871 11.912H86.7711C86.7391 10.92 86.6511 10.232 86.5071 9.848C86.3631 9.448 86.1311 9.248 85.8111 9.248C85.6511 9.248 85.4751 9.288 85.2831 9.368C85.1071 9.432 84.9231 9.584 84.7311 9.824L83.1951 17H78.2991L80.4831 6.68ZM99.9326 6.68H103.821L101.853 16.016C101.709 16.736 101.469 17.4 101.133 18.008C100.797 18.616 100.325 19.144 99.7166 19.592C99.1246 20.04 98.3726 20.392 97.4606 20.648C96.5646 20.904 95.4686 21.032 94.1726 21.032C93.9326 21.032 93.6446 21.024 93.3086 21.008C92.9726 21.008 92.6286 21 92.2766 20.984C91.9246 20.984 91.5886 20.976 91.2686 20.96C90.9486 20.944 90.6926 20.928 90.5006 20.912L90.9566 19.184C91.4686 19.264 91.9886 19.304 92.5166 19.304C93.0606 19.32 93.5246 19.328 93.9086 19.328C94.3886 19.328 94.7886 19.28 95.1086 19.184C95.4446 19.104 95.7166 18.968 95.9246 18.776C96.1486 18.584 96.3246 18.328 96.4526 18.008C96.5966 17.688 96.7086 17.296 96.7886 16.832L97.0766 15.272H96.9086C96.8126 15.416 96.6686 15.592 96.4766 15.8C96.3006 15.992 96.0686 16.184 95.7806 16.376C95.4926 16.552 95.1486 16.704 94.7486 16.832C94.3646 16.944 93.9246 17 93.4286 17C92.8686 17 92.3886 16.92 91.9886 16.76C91.6046 16.584 91.2926 16.352 91.0526 16.064C90.8126 15.76 90.6366 15.408 90.5246 15.008C90.4126 14.592 90.3566 14.144 90.3566 13.664C90.3566 13.456 90.3726 13.136 90.4046 12.704C90.4366 12.272 90.5086 11.784 90.6206 11.24C90.7486 10.696 90.9246 10.144 91.1486 9.584C91.3886 9.008 91.7006 8.488 92.0846 8.024C92.4846 7.56 92.9726 7.176 93.5486 6.872C94.1406 6.568 94.8526 6.416 95.6846 6.416C95.9406 6.416 96.2206 6.44 96.5246 6.488C96.8286 6.536 97.1246 6.624 97.4126 6.752C97.7006 6.88 97.9566 7.064 98.1806 7.304C98.4046 7.544 98.5806 7.856 98.7086 8.24H98.8526L99.9326 6.68ZM97.2446 8.768C96.8606 8.768 96.5406 8.976 96.2846 9.392C96.0286 9.792 95.8206 10.264 95.6606 10.808C95.5006 11.352 95.3806 11.896 95.3006 12.44C95.2366 12.968 95.2046 13.36 95.2046 13.616C95.2046 13.936 95.2526 14.208 95.3486 14.432C95.4606 14.64 95.6526 14.744 95.9246 14.744C96.0846 14.744 96.2366 14.704 96.3806 14.624C96.5406 14.544 96.6846 14.456 96.8126 14.36C96.9566 14.248 97.0766 14.136 97.1726 14.024C97.2846 13.912 97.3646 13.824 97.4126 13.76L98.3006 9.56C98.1726 9.384 98.0206 9.208 97.8446 9.032C97.6846 8.856 97.4846 8.768 97.2446 8.768ZM110.544 8.216H110.712C111.016 7.912 111.368 7.632 111.768 7.376C112.104 7.152 112.504 6.952 112.968 6.776C113.432 6.6 113.952 6.512 114.528 6.512C115.36 6.512 116.048 6.728 116.592 7.16C117.136 7.576 117.408 8.152 117.408 8.888C117.408 9.112 117.384 9.368 117.336 9.656C117.288 9.928 117.232 10.224 117.168 10.544C117.104 10.848 117.032 11.16 116.952 11.48C116.888 11.784 116.832 12.064 116.784 12.32L115.776 17H110.904L112.224 10.736C112.256 10.528 112.296 10.32 112.344 10.112C112.392 9.888 112.416 9.688 112.416 9.512C112.416 9.272 112.352 9.08 112.224 8.936C112.112 8.776 111.936 8.696 111.696 8.696C111.408 8.696 111.128 8.8 110.856 9.008C110.6 9.216 110.4 9.4 110.256 9.56L108.672 17H103.776L107.184 0.871999H112.104L110.544 8.216Z" fill="#AF52DE"/>
</svg>